<?xml version="1.0" standalone="no"?>
<!DOCTYPE svg PUBLIC "-//W3C//DTD SVG 20010904//EN"
 "http://www.w3.org/TR/2001/REC-SVG-20010904/DTD/svg10.dtd">
<svg version="1.0" xmlns="http://www.w3.org/2000/svg"
 width="2847.000000pt" height="2995.000000pt" viewBox="0 0 2847.000000 2995.000000"
 preserveAspectRatio="xMidYMid meet">

<g transform="translate(0.000000,2995.000000) scale(0.100000,-0.100000)"
fill="#000000" stroke="none">
<path d="M13950 29924 c-297 -27 -503 -60 -741 -120 -544 -136 -1031 -368
-1474 -703 -219 -165 -445 -382 -647 -619 -188 -221 -202 -225 -426 -133 -317
130 -659 220 -1017 267 -166 22 -515 29 -701 15 -735 -57 -1482 -325 -2079
-744 -808 -567 -1356 -1373 -1550 -2280 -37 -174 -68 -233 -143 -281 -55 -34
-92 -44 -262 -72 -682 -109 -1313 -395 -1860 -843 -133 -108 -385 -355 -502
-490 -538 -621 -869 -1379 -959 -2191 -17 -151 -17 -562 -1 -720 19 -178 56
-377 108 -589 42 -169 46 -192 42 -280 -7 -152 -51 -221 -254 -396 -829 -715
-1327 -1655 -1446 -2730 -20 -183 -17 -692 6 -875 82 -671 308 -1291 673
-1848 113 -174 242 -338 336 -430 101 -98 121 -139 115 -234 -4 -67 -8 -76
-144 -338 -203 -391 -329 -807 -386 -1275 -19 -156 -16 -601 5 -775 91 -743
370 -1475 770 -2023 457 -625 1122 -1101 1927 -1381 74 -26 154 -58 177 -71
47 -28 80 -86 88 -155 3 -25 12 -110 20 -190 32 -294 77 -504 170 -784 330
-996 953 -1724 1872 -2184 219 -111 543 -234 833 -317 194 -56 236 -73 272
-109 53 -54 52 -38 53 -1301 1 -1199 5 -1375 42 -1595 76 -463 415 -850 877
-1004 257 -86 656 -112 1541 -102 577 6 685 12 853 46 570 118 962 519 1082
1107 32 160 40 345 40 966 0 627 0 627 55 663 23 15 42 16 143 10 64 -4 155
-11 202 -16 137 -14 496 -12 655 5 586 62 1083 243 1606 585 160 105 210 123
314 118 90 -5 140 -26 287 -122 660 -428 1434 -636 2178 -585 225 15 459 18
503 6 l27 -7 0 -648 c0 -641 4 -747 36 -902 123 -597 575 -1049 1174 -1176 62
-13 124 -17 230 -16 80 1 514 3 965 4 899 3 842 0 1040 65 509 167 843 533
954 1044 39 182 41 272 41 1524 -1 715 3 1223 8 1241 16 53 40 90 78 124 51
44 95 62 254 104 827 216 1515 654 2021 1288 454 568 724 1248 803 2024 25
243 48 271 295 356 966 332 1675 906 2161 1749 297 514 485 1061 557 1614 21
168 24 622 5 780 -60 489 -185 900 -417 1370 -118 239 -133 286 -111 358 16
54 36 82 151 217 583 680 902 1437 966 2290 14 200 7 576 -16 775 -102 885
-414 1615 -969 2264 -125 147 -347 366 -501 495 -155 130 -189 165 -221 231
-37 78 -33 160 17 325 118 392 156 678 146 1110 -7 324 -37 555 -113 870 -252
1057 -875 1891 -1851 2483 -448 272 -922 437 -1450 506 -100 13 -165 27 -191
40 -51 26 -97 82 -111 135 -5 22 -28 116 -51 207 -161 663 -486 1236 -988
1743 -683 690 -1577 1117 -2562 1222 -207 22 -583 22 -787 0 -367 -39 -662
-110 -1018 -243 -209 -79 -248 -67 -408 122 -667 788 -1591 1277 -2667 1410
-120 15 -646 28 -750 19z m520 -994 c586 -42 1071 -202 1501 -495 361 -247
641 -554 898 -985 135 -227 230 -321 357 -356 122 -33 243 3 466 138 376 229
733 353 1160 404 162 19 488 22 648 5 1293 -138 2378 -1025 2675 -2186 41
-161 60 -284 80 -535 8 -108 22 -223 30 -255 49 -190 161 -299 344 -335 25 -5
152 -11 281 -14 519 -12 900 -96 1305 -290 482 -230 919 -614 1219 -1069 436
-662 584 -1429 420 -2165 -31 -140 -89 -317 -145 -444 -75 -172 -82 -196 -87
-309 -6 -159 31 -315 116 -484 80 -160 159 -250 322 -365 570 -402 969 -898
1203 -1495 235 -601 277 -1282 117 -1910 -51 -201 -116 -375 -216 -574 -190
-381 -432 -679 -775 -953 -206 -165 -270 -242 -304 -373 -41 -159 6 -296 173
-502 274 -340 449 -686 546 -1083 61 -246 71 -342 71 -665 0 -310 -8 -392 -62
-635 -197 -894 -811 -1686 -1606 -2074 -220 -107 -387 -165 -682 -237 -207
-50 -316 -89 -392 -138 -68 -44 -133 -112 -162 -169 -50 -98 -81 -290 -81
-501 0 -290 -53 -617 -147 -906 -235 -724 -733 -1304 -1411 -1644 -691 -347
-1417 -409 -2049 -175 -136 50 -344 151 -495 240 -70 42 -162 90 -205 106
-149 58 -304 47 -418 -32 -67 -46 -156 -150 -210 -244 -145 -254 -285 -438
-484 -637 -147 -147 -251 -233 -403 -334 -464 -310 -976 -465 -1538 -465 -338
0 -643 52 -944 161 -271 99 -616 298 -826 478 -52 45 -142 122 -200 171 -139
119 -226 164 -329 168 -138 6 -233 -47 -456 -258 -71 -67 -165 -150 -210 -185
-605 -471 -1418 -649 -2216 -484 -312 64 -649 203 -913 376 -361 236 -622 509
-850 890 -198 329 -297 420 -470 431 -61 4 -85 -1 -168 -28 -54 -18 -130 -51
-170 -74 -40 -23 -120 -70 -178 -103 -248 -144 -533 -241 -850 -290 -144 -22
-554 -25 -700 -4 -507 70 -949 251 -1355 555 -157 117 -432 392 -547 546 -284
381 -462 804 -533 1270 -9 61 -20 225 -25 395 -4 160 -14 323 -20 363 -26 164
-92 293 -184 362 -102 76 -193 109 -455 165 -219 47 -480 139 -685 242 -754
378 -1342 1119 -1557 1959 -68 270 -83 398 -83 724 -1 227 3 309 17 400 80
507 251 910 564 1328 57 75 118 167 138 203 105 198 77 384 -84 562 -20 22
-99 93 -176 157 -152 127 -342 318 -445 445 -234 288 -421 657 -515 1017 -76
295 -100 522 -92 901 11 552 105 948 326 1384 219 431 535 789 984 1115 273
198 376 339 491 676 25 73 48 154 52 181 9 66 -13 143 -86 300 -169 366 -237
703 -227 1126 5 219 17 324 58 513 194 895 819 1690 1644 2091 398 194 753
270 1385 300 207 10 275 26 366 86 140 92 188 213 204 521 23 437 104 747 293
1117 78 153 185 322 297 467 96 125 379 406 505 501 441 335 934 543 1455 614
166 23 468 30 630 16 284 -25 608 -96 853 -186 153 -57 384 -169 532 -259 206
-126 347 -144 514 -66 92 44 177 135 276 298 398 659 942 1118 1594 1343 391
135 851 191 1311 159z m5440 -24690 c41 -12 104 -32 140 -44 36 -13 137 -40
225 -60 291 -67 333 -89 354 -186 8 -35 11 -365 11 -1031 0 -1076 3 -1021 -60
-1054 -25 -13 -163 -15 -1112 -15 -614 0 -1100 4 -1122 10 -22 5 -51 17 -65
28 -57 42 -56 31 -54 602 3 550 5 584 49 671 37 73 68 103 177 170 299 183
562 408 801 687 123 144 227 216 348 242 65 14 223 3 308 -20z m-11185 -85
c97 -19 319 -134 515 -265 86 -58 285 -195 443 -305 157 -110 307 -214 333
-232 73 -49 129 -110 159 -171 49 -101 55 -166 55 -713 l1 -500 -23 -41 c-13
-23 -39 -51 -58 -62 -35 -21 -46 -21 -1125 -21 l-1090 0 -42 23 c-28 15 -50
37 -65 65 l-23 42 1 510 c1 592 19 1131 40 1211 49 190 215 348 449 429 126
43 304 56 430 30z"/>
<path d="M6660 22084 c-667 -58 -1119 -164 -1622 -383 -624 -272 -1194 -707
-1613 -1231 -177 -222 -301 -417 -433 -680 -188 -374 -298 -722 -363 -1150
-18 -114 -23 -190 -23 -360 -1 -226 7 -304 49 -465 128 -490 485 -829 1040
-984 599 -169 1249 -154 1905 42 366 109 654 247 1224 586 66 39 121 69 123
67 2 -1 -8 -90 -22 -197 -71 -548 -90 -846 -90 -1374 1 -446 10 -607 51 -930
100 -788 362 -1638 711 -2305 300 -574 709 -1112 1168 -1533 1126 -1035 2501
-1616 4245 -1791 658 -67 1545 -75 2195 -21 942 79 1777 267 2544 575 1640
658 2787 1835 3434 3525 409 1069 531 2067 417 3410 -28 328 -44 584 -37 591
3 3 65 -30 139 -74 593 -352 1009 -520 1543 -621 311 -59 379 -66 675 -66 266
0 281 1 465 33 546 94 832 219 1085 472 400 400 486 949 280 1785 -302 1229
-1132 2192 -2332 2706 -296 127 -706 246 -1038 303 -293 50 -423 60 -770 60
-305 1 -330 -1 -405 -22 -122 -33 -236 -94 -311 -165 -77 -72 -119 -131 -198
-281 -292 -557 -759 -887 -1386 -982 -160 -25 -493 -25 -649 -1 -420 66 -769
236 -1070 523 -166 157 -342 387 -426 554 -61 122 -112 195 -178 256 -196 181
-459 175 -647 -15 -48 -49 -93 -113 -172 -246 -167 -282 -301 -449 -500 -621
-622 -535 -1464 -695 -2183 -414 -205 80 -417 206 -600 353 -190 154 -396 395
-525 616 -133 226 -205 319 -298 383 -92 64 -223 89 -338 65 -97 -21 -156 -51
-226 -116 -70 -64 -119 -133 -178 -251 -144 -286 -416 -590 -692 -770 -296
-195 -611 -298 -1013 -331 -641 -53 -1207 162 -1611 613 -115 129 -205 259
-337 491 -63 109 -122 175 -205 230 -93 61 -181 94 -316 117 -111 19 -387 33
-486 24z m238 -1119 c69 -21 137 -85 196 -186 34 -58 80 -114 147 -181 54 -54
112 -121 128 -150 81 -141 58 -322 -84 -652 -433 -1012 -1389 -1777 -2474
-1980 -255 -48 -599 -68 -719 -43 -200 43 -348 181 -408 382 -28 93 -24 293
10 459 145 707 682 1428 1398 1876 241 151 578 303 828 375 365 105 808 150
978 100z m15457 -66 c630 -125 1188 -420 1630 -864 237 -237 402 -466 546
-760 103 -211 162 -378 224 -642 82 -351 83 -471 5 -630 -47 -95 -88 -135
-193 -187 -116 -56 -183 -70 -342 -70 -336 1 -857 109 -1221 254 -688 274
-1219 746 -1613 1432 -167 292 -186 355 -185 618 0 179 3 203 27 295 65 241
181 396 367 488 222 109 441 129 755 66z m-10050 -689 c454 -363 948 -578
1506 -655 163 -23 494 -30 674 -16 659 53 1248 299 1785 744 47 39 153 138
236 220 l152 149 88 -92 c307 -319 689 -588 1055 -743 660 -280 1317 -304
2104 -78 76 22 140 39 142 38 7 -7 106 -521 142 -732 22 -132 83 -537 136
-900 52 -363 111 -757 129 -875 79 -499 101 -788 101 -1310 -1 -445 -9 -592
-56 -915 -120 -834 -414 -1608 -872 -2295 -362 -543 -792 -976 -1317 -1325
-518 -345 -1028 -564 -1745 -750 -723 -188 -1507 -285 -2315 -285 -1683 0
-3080 356 -4135 1055 -301 199 -511 373 -760 626 -373 380 -630 748 -876 1254
-416 854 -617 1850 -579 2857 20 512 59 817 215 1683 25 138 99 585 165 995
123 765 127 783 161 861 l21 46 135 -39 c631 -178 1238 -182 1803 -11 462 139
982 463 1363 851 l79 79 166 -166 c92 -92 226 -213 297 -271z"/>
<path d="M17613 17585 c-139 -25 -297 -89 -393 -160 -206 -151 -341 -424 -343
-695 -1 -179 37 -303 141 -459 114 -173 232 -267 419 -334 467 -168 949 58
1102 518 106 320 29 648 -208 885 -128 127 -294 215 -465 245 -104 18 -155 18
-253 0z"/>
<path d="M10535 17566 c-328 -87 -568 -314 -651 -616 -28 -101 -26 -300 4
-410 67 -250 235 -462 452 -574 144 -74 237 -97 395 -97 240 0 463 113 625
317 158 198 233 404 216 589 -36 380 -263 663 -626 780 -125 40 -290 45 -415
11z"/>
</g>
</svg>
